<svg width="81" height="12" viewBox="0 0 81 12" fill="none" xmlns="http://www.w3.org/2000/svg">
<path d="M7.4689 6.14595C7.4689 3.74595 5.94717 1.8 3.46271 1.8H1.55279V10.4919H3.46271C5.94717 10.4919 7.4689 8.54595 7.4689 6.14595ZM9.05275 6.14595C9.05275 9.27568 6.95648 11.8216 3.46271 11.8216H0V0.47027H3.46271C6.95648 0.47027 9.05275 3.01622 9.05275 6.14595Z" fill="black"/>
<path d="M12.353 3.71351V8.28649C12.353 10.0054 13.1139 10.6054 13.9369 10.6054C14.7443 10.6054 16.4369 10.0216 16.4369 7.47568V3.71351H17.9431V11.8216H16.4369V10.2C16.1108 11.3676 15.117 12 13.8282 12C12.1512 12 10.8468 10.8973 10.8468 8.28649V3.71351H12.353Z" fill="black"/>
<path d="M25.1564 5.46487L23.821 5.77297C23.5725 5.04324 23.0912 4.88108 22.6098 4.88108C21.911 4.88108 21.4607 5.33514 21.4607 5.91892C21.4607 6.45405 21.911 6.71351 22.3924 6.89189L23.5104 7.28108C24.9855 7.75135 25.3737 8.70811 25.3737 9.56757C25.3737 11.1081 24.0849 12 22.5787 12C21.1968 12 19.9545 11.2541 19.5819 9.87568L20.9172 9.53514C21.1036 10.1838 21.8023 10.6541 22.5943 10.6541C23.3862 10.6541 23.9297 10.1838 23.9297 9.55135C23.9297 8.98378 23.4949 8.72432 22.9514 8.52973L21.911 8.15676C20.6688 7.76757 20.0011 7.07027 20.0011 5.95135C20.0011 4.58919 21.0259 3.53514 22.5632 3.53514C23.6191 3.53514 24.7526 4.00541 25.1564 5.46487Z" fill="black"/>
<path d="M29.0602 4.94595V9.37297C29.0602 10.2811 29.4794 10.6216 29.9918 10.6216C30.4732 10.6216 30.939 10.3297 30.939 9.72973C30.939 9.61622 30.9235 9.30811 30.8148 9.06487H32.1347C32.1968 9.24324 32.2434 9.43784 32.2589 9.61622C32.2744 9.72973 32.2744 9.82703 32.2744 9.94054C32.2744 11.1081 31.4825 12 29.9763 12C28.7496 12 27.554 11.3351 27.554 9.25946V4.94595H26.2807V3.71351H27.554L27.8956 1.37838H29.0602V3.71351H31.5291V4.94595H29.0602Z" fill="black"/>
<path d="M35.2394 11.8216H33.7332V3.71351H35.2394V11.8216ZM33.4382 1.1027C33.4382 1.73513 33.8729 2.18919 34.4785 2.18919C35.0841 2.18919 35.5344 1.73513 35.5344 1.1027C35.5344 0.47027 35.0841 0 34.4785 0C33.8729 0 33.4382 0.47027 33.4382 1.1027Z" fill="black"/>
<path d="M37.1157 7.76757C37.1157 5.43243 38.6375 3.53514 40.9666 3.53514C42.0225 3.53514 43.0318 3.90811 43.7772 5.01081V0.097297H45.2834V11.8216H43.7772V10.5243C43.0318 11.627 42.0225 12 40.9666 12C38.6375 12 37.1157 10.1027 37.1157 7.76757ZM43.8082 7.76757C43.8082 6.12973 42.7213 4.92973 41.153 4.92973C39.5381 4.92973 38.6219 6.22703 38.6219 7.76757C38.6219 9.30811 39.5381 10.6054 41.153 10.6054C42.7213 10.6054 43.8082 9.40541 43.8082 7.76757Z" fill="black"/>
<path d="M58.2371 11.173V11.8216H52.2589V0.47027H52.9887V11.173H58.2371Z" fill="black"/>
<path d="M60.5331 3.77838V11.8216H59.8188V3.77838H60.5331ZM59.6014 0.940541C59.6014 0.551351 59.8343 0.291892 60.1604 0.291892C60.4865 0.291892 60.7194 0.551351 60.7194 0.940541C60.7194 1.32973 60.4865 1.58919 60.1604 1.58919C59.8343 1.58919 59.6014 1.32973 59.6014 0.940541Z" fill="black"/>
<path d="M64.2533 4.39459V9.38919C64.2533 10.9784 64.9676 11.3351 65.6664 11.3351C66.4583 11.3351 67.0018 10.8 67.0018 10.0378C67.0018 9.98919 67.0018 9.72973 66.9241 9.55135H67.5918C67.6384 9.68108 67.6695 9.81081 67.6695 9.92432C67.685 9.97297 67.685 10.0378 67.685 10.1027C67.685 11.1892 66.9552 12 65.6664 12C64.626 12 63.5391 11.5297 63.5391 9.35676V4.39459H62.1571V3.77838H63.5391L63.7099 1.18378H64.2533V3.77838H66.7999V4.39459H64.2533Z" fill="black"/>
<path d="M75.6172 10.2324C75.7569 10.4108 75.9122 10.5081 76.052 10.6865C75.1048 11.7243 73.9247 12 72.8688 12C70.2446 12 68.552 10.1027 68.552 7.83243C68.552 5.4973 70.2911 3.6 72.698 3.6C74.5924 3.6 76.4246 4.78378 76.4712 7.57297H69.2973C69.2818 7.68649 69.2818 7.76757 69.2818 7.88108C69.2818 9.79459 70.6949 11.3351 72.8688 11.3351C73.8004 11.3351 74.7942 11.0595 75.6172 10.2324ZM72.698 4.26486C71.0365 4.26486 69.7477 5.35135 69.375 6.97297H75.7259C75.4774 5.04324 74.0799 4.26486 72.698 4.26486Z" fill="black"/>
<path d="M77.4763 1.88919C77.4763 0.851931 78.2399 0.00752934 79.2381 0.00752934C80.2364 0.00752934 81 0.851931 81 1.88919C81 2.92645 80.2364 3.77085 79.2381 3.77085C78.2399 3.77085 77.4763 2.92645 77.4763 1.88919ZM77.7757 1.88919C77.7757 2.75444 78.4146 3.45811 79.2381 3.45811C80.0617 3.45811 80.7005 2.75444 80.7005 1.88919C80.7005 1.02394 80.0617 0.320271 79.2381 0.320271C78.4146 0.320271 77.7757 1.02394 77.7757 1.88919ZM79.5476 2.80135L79.2331 2.11853H79.0235V2.80135H78.6642V0.935328H79.3879C79.7422 0.935328 79.9469 1.2168 79.9469 1.54517C79.9469 1.81622 79.8171 2.01429 79.5725 2.09247L79.9619 2.80135H79.5476ZM79.0235 1.81622H79.338C79.4927 1.81622 79.5775 1.70676 79.5775 1.54517C79.5775 1.38359 79.4927 1.23765 79.338 1.23765H79.0235V1.81622Z" fill="black"/>
</svg>
