<svg width="8" height="8" viewBox="0 0 8 8" fill="none" xmlns="http://www.w3.org/2000/svg">
<path d="M7 5.27991L5.4577 5.62955L4.0117 5.35791L2.5312 5.62955L1 5.27827V5.09091C1 4.87391 1.09482 4.66581 1.2636 4.51237C1.43239 4.35893 1.66131 4.27273 1.9 4.27273H6.1C6.3387 4.27273 6.56761 4.35893 6.7364 4.51237C6.90518 4.66581 7 4.87391 7 5.09091V5.27991ZM7 5.84255V7H1V5.84091L2.5171 6.18864L4.0105 5.91482L5.4682 6.18864L7 5.84255ZM3.1 3.45455H4.9V4H3.1V3.45455ZM4 3.29091C3.76131 3.29091 3.53239 3.20471 3.3636 3.05127C3.19482 2.89783 3.1 2.68972 3.1 2.47273C3.1 2.17136 3.4 1.68045 4 1C4.6 1.68045 4.9 2.17136 4.9 2.47273C4.9 2.68972 4.80518 2.89783 4.6364 3.05127C4.46761 3.20471 4.23869 3.29091 4 3.29091Z" fill="black"/>
</svg>
