<svg width="8" height="9" viewBox="0 0 8 9" fill="none" xmlns="http://www.w3.org/2000/svg">
<path d="M7 5.92249L5.4577 6.27212L4.0117 6.00049L2.5312 6.27212L1 5.92085V5.73349C1 5.51649 1.09482 5.30838 1.2636 5.15495C1.43239 5.00151 1.66131 4.91531 1.9 4.91531H6.1C6.3387 4.91531 6.56761 5.00151 6.7364 5.15495C6.90518 5.30838 7 5.51649 7 5.73349V5.92249ZM7 6.48512V7.64258H1V6.48349L2.5171 6.83121L4.0105 6.5574L5.4682 6.83121L7 6.48512ZM3.1 4.09712H4.9V4.64258H3.1V4.09712ZM4 3.93349C3.76131 3.93349 3.53239 3.84729 3.3636 3.69385C3.19482 3.54041 3.1 3.3323 3.1 3.11531C3.1 2.81394 3.4 2.32303 4 1.64258C4.6 2.32303 4.9 2.81394 4.9 3.11531C4.9 3.3323 4.80518 3.54041 4.6364 3.69385C4.46761 3.84729 4.23869 3.93349 4 3.93349Z" fill="white"/>
</svg>
